<?xml version="1.0" encoding="UTF-8" standalone="no"?>
<svg inkscape:version="1.2.1 (9c6d41e410, 2022-07-14)" sodipodi:docname="NewLogo.svg" id="svg66"
    xml:space="preserve" viewBox="0 0 575 575" height="575" width="575" version="1.1"
    xmlns:inkscape="http://www.inkscape.org/namespaces/inkscape"
    xmlns:sodipodi="http://sodipodi.sourceforge.net/DTD/sodipodi-0.dtd"
    xmlns="http://www.w3.org/2000/svg"><sodipodi:namedview
   id="namedview68"
   pagecolor="#ffffff"
   bordercolor="#000000"
   borderopacity="0.25"
   inkscape:showpageshadow="2"
   inkscape:pageopacity="0.0"
   inkscape:pagecheckerboard="false"
   inkscape:deskcolor="#d1d1d1"
   showgrid="false"
   inkscape:zoom="6.6449958"
   inkscape:cx="78.48011"
   inkscape:cy="399.69927"
   inkscape:window-width="1920"
   inkscape:window-height="1017"
   inkscape:window-x="-8"
   inkscape:window-y="-8"
   inkscape:window-maximized="1"
   inkscape:current-layer="g5948"
   showguides="false" />
    <desc id="desc2">Created with Fabric.js 3.6.6</desc>
    <defs id="defs4">
        
        <rect x="441.83627" y="935.4408" width="311.8136" height="128.81876" id="rect4752" />
        <rect x="835.97211" y="721.04724" width="675.07727" height="503.1156" id="rect2494" />


        
        
    </defs>


    <g id="g5948" transform="translate(-292.52179,-280.60364)" inkscape:label="g5948"><ellipse
   style="fill:#ffffff;fill-opacity:1;stroke:#000074;stroke-width:3.39371;stroke-dasharray:none;stroke-opacity:1;image-rendering:auto"
   id="circle380"
   cx="580.02179"
   cy="568.10364"
   inkscape:label="circleFill"
   rx="284.80313"
   ry="284.80316" />
        <g id="g7843" transform="translate(68.310111,29.669602)"><path
   style="fill:#37984c;fill-rule:nonzero;stroke:none;stroke-width:0.32;stroke-linecap:butt;stroke-linejoin:miter;stroke-miterlimit:4;stroke-dasharray:none;stroke-dashoffset:0"
   d="m 482.56323,506.7348 c -4.17504,5.136 -10.54624,8.4192 -17.68128,8.4192 -12.5776,0 -22.77248,-10.1952 -22.77248,-22.7712 0,-12.5792 10.19488,-22.7712 22.77248,-22.7712 7.17888,0 13.5824,3.3184 17.75488,8.5088 V 425.506 l -52.91616,0.0928 c 5.36128,-4.1696 8.81376,-10.6752 8.81376,-17.9904 0,-12.5792 -10.19488,-22.7744 -22.77376,-22.7744 -12.57632,0 -22.7712,10.1952 -22.7712,22.7744 0,7.0272 2.93248,13.3664 8.69984,18.0352 h -52.80352 c 0,137.6512 133.75104,133.6128 133.75104,133.6128 v -52.288"
   stroke-linecap="round"
   id="path18" />
            <path
                style="fill:none;fill-rule:nonzero;stroke:#2a3848;stroke-width:4;stroke-linecap:round;stroke-linejoin:round;stroke-miterlimit:10;stroke-dasharray:none;stroke-dashoffset:0"
                d="M 400.26195,425.47 H 347.45683" stroke-linecap="round" id="path26" />
            <path
                style="fill:none;fill-rule:nonzero;stroke:#2a3848;stroke-width:4;stroke-linecap:round;stroke-linejoin:round;stroke-miterlimit:10;stroke-dasharray:none;stroke-dashoffset:0"
                d="M 484.19067,478.0876 V 425.47 h -52.9712" stroke-linecap="round" id="path30-0" />
            <path
                style="fill:none;fill-rule:nonzero;stroke:#2a3848;stroke-width:4;stroke-linecap:round;stroke-linejoin:round;stroke-miterlimit:10;stroke-dasharray:none;stroke-dashoffset:0"
                d="m 401.35155,425.47 c -5.76768,-4.6688 -8.70272,-11.008 -8.70272,-18.0384 0,-12.576 10.19648,-22.7712 22.77376,-22.7712 12.57632,0 22.77248,10.1952 22.77248,22.7712 0,7.3408 -3.47616,13.872 -8.86848,18.0384"
                stroke-linecap="round" id="path38" />
            <path
                style="fill:none;fill-rule:nonzero;stroke:#2a3848;stroke-width:4;stroke-linecap:round;stroke-linejoin:round;stroke-miterlimit:10;stroke-dasharray:none;stroke-dashoffset:0"
                d="M 484.19067,561.094 V 508.806" stroke-linecap="round" id="path54" />
            <path
                style="fill:none;fill-rule:nonzero;stroke:#2a3848;stroke-width:4;stroke-linecap:round;stroke-linejoin:round;stroke-miterlimit:10;stroke-dasharray:none;stroke-dashoffset:0"
                d="m 484.11675,507.6352 c -4.176,5.136 -10.54496,8.416 -17.68128,8.416 -12.57728,0 -22.77376,-10.1952 -22.77376,-22.7712 0,-12.576 10.19648,-22.7744 22.77376,-22.7744 7.17888,0 13.58144,3.3248 17.7552,8.512"
                stroke-linecap="round" id="path62" /></g>
        <g id="g7835" transform="translate(68.310111,29.669602)"><path
   style="fill:#00bfff;fill-rule:nonzero;stroke:none;stroke-width:0.319989;stroke-linecap:butt;stroke-linejoin:miter;stroke-miterlimit:4;stroke-dasharray:none;stroke-dashoffset:0"
   d="m 485.81914,344.19721 c 4.17355,-5.13592 10.54313,-8.41907 17.67779,-8.41907 12.5779,0 22.77257,10.19504 22.77257,22.77404 0,12.57579 -10.19467,22.77083 -22.77257,22.77083 -7.17722,0 -13.58072,-3.32155 -17.75426,-8.51186 v 52.61355 l 52.91465,-0.0896 c -5.36195,4.16633 -8.81297,10.67183 -8.81297,17.99011 0,12.5758 10.19434,22.77084 22.77128,22.77084 12.57662,0 22.77128,-10.19504 22.77128,-22.77084 0,-7.03028 -2.9336,-13.36938 -8.70098,-18.03811 h 52.80074 c 0,-137.64898 -133.744,-133.61065 -133.744,-133.61065 v 52.28716"
   stroke-linecap="round"
   id="path10" />
            <path
                style="fill:#a2dfd6;fill-rule:nonzero;stroke:none;stroke-width:4;stroke-linecap:butt;stroke-linejoin:miter;stroke-miterlimit:4;stroke-dasharray:none;stroke-dashoffset:0"
                d="M 486.03099,289.8528 V 342.144" stroke-linecap="round" id="path14" />
            <path
                style="fill:none;fill-rule:nonzero;stroke:#2a3848;stroke-width:4;stroke-linecap:round;stroke-linejoin:round;stroke-miterlimit:10;stroke-dasharray:none;stroke-dashoffset:0"
                d="m 568.11939,425.47 h 52.80512" stroke-linecap="round" id="path361" />
            <path
                style="fill:none;fill-rule:nonzero;stroke:#2a3848;stroke-width:4;stroke-linecap:round;stroke-linejoin:round;stroke-miterlimit:10;stroke-dasharray:none;stroke-dashoffset:0"
                d="M 484.19067,372.8524 V 425.47 h 52.9712" stroke-linecap="round" id="path365" />
            <path
                style="fill:none;fill-rule:nonzero;stroke:#2a3848;stroke-width:4;stroke-linecap:round;stroke-linejoin:round;stroke-miterlimit:10;stroke-dasharray:none;stroke-dashoffset:0"
                d="m 567.02979,425.47 c 5.76768,4.6688 8.70272,11.008 8.70272,18.0384 0,12.576 -10.19648,22.7712 -22.77376,22.7712 -12.57632,0 -22.77248,-10.1952 -22.77248,-22.7712 0,-7.3408 3.47616,-13.872 8.86848,-18.0384"
                stroke-linecap="round" id="path369" />
            <path
                style="fill:none;fill-rule:nonzero;stroke:#2a3848;stroke-width:4;stroke-linecap:round;stroke-linejoin:round;stroke-miterlimit:10;stroke-dasharray:none;stroke-dashoffset:0"
                d="m 484.19067,289.846 v 52.288" stroke-linecap="round" id="path373" />
            <path
                style="fill:none;fill-rule:nonzero;stroke:#2a3848;stroke-width:4;stroke-linecap:round;stroke-linejoin:round;stroke-miterlimit:10;stroke-dasharray:none;stroke-dashoffset:0"
                d="m 484.26459,343.3048 c 4.176,-5.136 10.54496,-8.416 17.68128,-8.416 12.57728,0 22.77376,10.1952 22.77376,22.7712 0,12.576 -10.19648,22.7744 -22.77376,22.7744 -7.17888,0 -13.58144,-3.3248 -17.7552,-8.512"
                stroke-linecap="round" id="path377" /></g>
        <g id="g1545" transform="translate(68.310111,29.669602)"><g
     aria-label="My Mental Health App"
     id="text2440"
     style="font-size:74.6667px;letter-spacing:0.5px;stroke:#000000;stroke-width:0"
     inkscape:label="text2440"><path
       d="m 338.24407,640.53465 q -1.3125,0.5651 -2.42448,0.98437 -1.09375,0.40104 -2.04167,0.65625 -0.94791,0.27344 -1.76823,0.40104 -0.82031,0.12761 -1.58593,0.12761 -1.03907,0 -1.82292,-0.40104 -0.78386,-0.38282 -1.3125,-1.27605 -0.51042,-0.89322 -0.76563,-2.35156 -0.25521,-1.45833 -0.25521,-3.60938 v -1.60416 q 0,-1.13021 0,-2.60678 0.0182,-1.49479 0.0365,-3.15364 0.0182,-1.67709 0.0365,-3.40886 0.0365,-1.73177 0.0729,-3.33594 0.0365,-1.62239 0.0729,-3.02604 0.0365,-1.40365 0.0729,-2.38802 0.0912,-2.13282 0.20052,-4.2474 0.12761,-2.13281 0.32813,-4.17448 l -0.14584,-0.0547 q -0.30989,0.82031 -0.74739,1.87761 -0.4375,1.03906 -1.11198,2.51562 -1.60417,3.53646 -3.28125,7.32813 -1.65886,3.79167 -3.3724,7.7474 -1.69531,3.9375 -3.42709,8.00261 -1.73177,4.04688 -3.44531,8.09375 l -0.89323,-0.0365 q -0.38281,-1.23958 -0.92969,-2.91666 -0.54687,-1.69532 -1.20312,-3.64584 -0.65625,-1.96875 -1.40365,-4.13802 -0.72917,-2.1875 -1.49479,-4.41146 -0.76563,-2.24219 -1.54948,-4.46615 -0.76563,-2.22396 -1.49479,-4.28386 -0.71094,-2.05989 -1.36719,-3.86458 -0.63802,-1.82292 -1.14844,-3.2448 -0.58333,-1.65885 -1.02083,-2.93489 -0.41928,-1.27604 -0.72917,-2.26042 l -0.12761,0.0547 q 0,0.54687 0,1.09375 0.0182,0.52864 0.0182,1.14844 v 3.00781 q 0,2.89844 -0.0911,5.92448 -0.0912,3.00782 -0.23698,5.94271 -0.14584,2.91667 -0.34636,5.65105 -0.20052,2.73437 -0.41927,5.04948 -0.18229,1.91406 -0.34635,3.26302 -0.14583,1.33073 -0.34636,2.24219 -0.18229,0.91146 -0.45573,1.4401 -0.27343,0.51042 -0.6927,0.78386 -0.40105,0.27344 -1.00261,0.34635 -0.58333,0.0729 -1.40364,0.0729 h -0.54688 q -0.16406,0 -0.40104,-0.0182 -0.23698,0 -0.58334,-0.0182 l -0.2552,-0.18229 q 0.85677,-1.76823 1.51302,-3.9375 0.67448,-2.1875 1.16666,-4.63021 0.51042,-2.44271 0.87501,-5.04948 0.36458,-2.625 0.60156,-5.23178 0.25521,-2.60677 0.40104,-5.14062 0.16406,-2.53386 0.23698,-4.81251 0.0729,-2.27864 0.0911,-4.21094 0.0365,-1.93229 0.0365,-3.37239 0,-0.92969 -0.1276,-1.53125 -0.12761,-0.60157 -0.45573,-0.94792 -0.3099,-0.36459 -0.875,-0.49219 -0.54688,-0.14583 -1.42188,-0.14583 -0.60156,0 -1.38541,0.0911 -0.78386,0.0729 -1.73178,0.21875 l -0.20052,-1.60416 q 3.33594,-0.76563 5.48699,-1.13021 2.15104,-0.38282 3.42708,-0.38282 0.65625,0 1.13021,0.12761 0.47396,0.10937 0.82031,0.40104 0.36459,0.27344 0.63802,0.7474 0.27344,0.45573 0.52865,1.14843 0.96615,2.69792 2.04167,5.74219 1.07552,3.04428 2.1875,6.21615 1.13021,3.17188 2.24219,6.36199 1.13021,3.17187 2.16927,6.16146 0.40104,1.18489 0.72917,2.16927 0.34635,0.96615 0.61979,1.80469 0.29166,0.82031 0.52864,1.58594 0.25521,0.74739 0.47396,1.49479 h 0.12761 q 0.29166,-0.78386 0.60156,-1.53125 0.3099,-0.76563 0.65625,-1.56771 0.34635,-0.82031 0.7474,-1.75 0.41927,-0.92969 0.92968,-2.09636 1.27605,-2.91667 2.64323,-6.05208 1.38542,-3.13542 2.82553,-6.41667 1.45833,-3.28126 2.95312,-6.65365 1.49479,-3.3724 3.00782,-6.76303 0.16406,-0.36458 0.4375,-0.60156 0.29166,-0.23698 0.61979,-0.36458 0.34635,-0.14584 0.71094,-0.20052 0.36458,-0.0547 0.67448,-0.0547 0.52864,0 1.14843,0.14583 0.63803,0.12761 1.22136,0.38281 -0.27344,2.98959 -0.49219,5.72397 -0.20052,2.73437 -0.34635,5.32291 -0.14584,2.58855 -0.25521,5.1224 -0.10938,2.51563 -0.16406,5.08594 -0.0547,2.57032 -0.0911,5.25001 -0.0182,2.67968 -0.0182,5.59635 0,1.93229 0.16406,3.29948 0.16407,1.36719 0.56511,2.24219 0.41927,0.85677 1.11198,1.25781 0.69271,0.40105 1.73177,0.40105 0.38281,0 0.72917,-0.0182 0.36458,-0.0182 0.74739,-0.0729 0.38281,-0.0729 0.83854,-0.20052 0.47396,-0.1276 1.07553,-0.32813 z"
       style="font-family:Gabriola;-inkscape-font-specification:Gabriola"
       id="path370" /><path
            d="m 348.00449,642.04767 q -0.47395,-1.73177 -1.02083,-3.62761 -0.52865,-1.89583 -1.09375,-3.8099 -0.54688,-1.91406 -1.11198,-3.77343 -0.54688,-1.85938 -1.07552,-3.53646 -0.51042,-1.67709 -0.98438,-3.09896 -0.45573,-1.44011 -0.82031,-2.47917 -0.38281,-1.07552 -0.7474,-1.75 -0.34635,-0.69271 -0.72916,-1.07552 -0.38282,-0.38282 -0.80209,-0.52865 -0.41927,-0.14583 -0.92969,-0.14583 -0.58333,0 -1.23958,0.1276 -0.67448,0.1276 -1.60417,0.34635 l -0.27343,-1.3125 q 1.09375,-0.40104 2.13281,-0.72916 1.05729,-0.32813 1.95052,-0.56511 0.89323,-0.23698 1.58594,-0.36458 0.69271,-0.1276 1.09375,-0.1276 0.47396,0 0.89323,0.16406 0.4375,0.16406 0.83854,0.58333 0.41927,0.40104 0.80209,1.13021 0.38281,0.71094 0.76562,1.80469 0.25521,0.69271 0.60156,1.78646 0.36459,1.07552 0.78386,2.46094 0.41927,1.36718 0.89323,2.98958 0.47396,1.6224 0.94791,3.39063 0.49219,1.75 0.96615,3.59115 0.47396,1.84114 0.91146,3.64583 0.91146,-2.38802 1.89583,-4.97656 1.00261,-2.60678 2.02344,-5.23178 1.03907,-2.625 2.0599,-5.19531 1.02083,-2.58855 1.96875,-4.94011 0.16406,-0.40104 0.4375,-0.65625 0.29167,-0.25521 0.63802,-0.40104 0.34636,-0.16406 0.71094,-0.21875 0.38281,-0.0729 0.7474,-0.0729 0.60156,0 1.16666,0.18229 0.56511,0.16407 1.07552,0.41927 -0.82031,1.33073 -1.71354,2.97136 -0.875,1.6224 -1.80469,3.48177 -0.92968,1.84115 -1.8776,3.84636 -0.92969,2.00521 -1.85938,4.10156 -0.92969,2.07813 -1.84114,4.19271 -0.89323,2.09636 -1.73178,4.13803 -0.85677,2.05989 -1.62239,4.0651 -0.76563,2.02344 -1.49479,3.90105 -0.72917,1.89583 -1.44011,3.6276 -0.69271,1.75 -1.42188,3.26302 -0.6927,1.40365 -1.47656,2.60678 -0.78385,1.22135 -1.73177,2.09635 -0.94792,0.89323 -2.09636,1.40365 -1.1302,0.51041 -2.51562,0.51041 -0.85677,0 -1.54948,-0.23697 -0.69271,-0.21875 -1.16667,-0.60157 -0.49219,-0.36458 -0.74739,-0.85677 -0.25521,-0.49219 -0.25521,-1.03906 0,-0.60156 0.36458,-1.25781 0.34635,-0.63803 0.92969,-0.96615 0.76562,0.47396 1.54948,0.67448 0.78385,0.20052 1.40364,0.20052 1.4948,0 2.64323,-0.82031 1.16667,-0.80209 2.18751,-2.42448 1.02083,-1.6224 2.04166,-4.06511 1.03907,-2.44271 2.29688,-5.72396 l 0.36458,-0.96615 z"
            style="font-family:Gabriola;-inkscape-font-specification:Gabriola" id="path372" /><path
            d="m 425.22067,640.53465 q -1.3125,0.5651 -2.42448,0.98437 -1.09375,0.40104 -2.04166,0.65625 -0.94792,0.27344 -1.76823,0.40104 -0.82032,0.12761 -1.58594,0.12761 -1.03907,0 -1.82292,-0.40104 -0.78386,-0.38282 -1.3125,-1.27605 -0.51042,-0.89322 -0.76563,-2.35156 -0.25521,-1.45833 -0.25521,-3.60938 v -1.60416 q 0,-1.13021 0,-2.60678 0.0182,-1.49479 0.0365,-3.15364 0.0182,-1.67709 0.0365,-3.40886 0.0365,-1.73177 0.0729,-3.33594 0.0365,-1.62239 0.0729,-3.02604 0.0365,-1.40365 0.0729,-2.38802 0.0911,-2.13282 0.20052,-4.2474 0.12761,-2.13281 0.32813,-4.17448 l -0.14584,-0.0547 q -0.30989,0.82031 -0.74739,1.87761 -0.4375,1.03906 -1.11198,2.51562 -1.60417,3.53646 -3.28125,7.32813 -1.65886,3.79167 -3.3724,7.7474 -1.69531,3.9375 -3.42709,8.00261 -1.73177,4.04688 -3.44531,8.09375 l -0.89323,-0.0365 q -0.38281,-1.23958 -0.92969,-2.91666 -0.54687,-1.69532 -1.20312,-3.64584 -0.65625,-1.96875 -1.40365,-4.13802 -0.72917,-2.1875 -1.49479,-4.41146 -0.76563,-2.24219 -1.54948,-4.46615 -0.76563,-2.22396 -1.49479,-4.28386 -0.71094,-2.05989 -1.36719,-3.86458 -0.63802,-1.82292 -1.14844,-3.2448 -0.58333,-1.65885 -1.02083,-2.93489 -0.41927,-1.27604 -0.72917,-2.26042 l -0.12761,0.0547 q 0,0.54687 0,1.09375 0.0182,0.52864 0.0182,1.14844 v 3.00781 q 0,2.89844 -0.0911,5.92448 -0.0911,3.00782 -0.23698,5.94271 -0.14583,2.91667 -0.34636,5.65105 -0.20052,2.73437 -0.41927,5.04948 -0.18229,1.91406 -0.34635,3.26302 -0.14583,1.33073 -0.34636,2.24219 -0.18229,0.91146 -0.45572,1.4401 -0.27344,0.51042 -0.69271,0.78386 -0.40105,0.27344 -1.00261,0.34635 -0.58333,0.0729 -1.40364,0.0729 h -0.54688 q -0.16406,0 -0.40104,-0.0182 -0.23698,0 -0.58334,-0.0182 l -0.2552,-0.18229 q 0.85677,-1.76823 1.51302,-3.9375 0.67448,-2.1875 1.16667,-4.63021 0.51041,-2.44271 0.875,-5.04948 0.36458,-2.625 0.60156,-5.23178 0.25521,-2.60677 0.40104,-5.14062 0.16406,-2.53386 0.23698,-4.81251 0.0729,-2.27864 0.0912,-4.21094 0.0365,-1.93229 0.0365,-3.37239 0,-0.92969 -0.1276,-1.53125 -0.1276,-0.60157 -0.45573,-0.94792 -0.3099,-0.36459 -0.875,-0.49219 -0.54688,-0.14583 -1.42188,-0.14583 -0.60156,0 -1.38541,0.0911 -0.78386,0.0729 -1.73177,0.21875 l -0.20053,-1.60416 q 3.33594,-0.76563 5.48699,-1.13021 2.15104,-0.38282 3.42708,-0.38282 0.65625,0 1.13021,0.12761 0.47396,0.10937 0.82031,0.40104 0.36459,0.27344 0.63802,0.7474 0.27344,0.45573 0.52865,1.14843 0.96615,2.69792 2.04167,5.74219 1.07552,3.04428 2.1875,6.21615 1.13021,3.17188 2.24219,6.36199 1.13021,3.17187 2.16927,6.16146 0.40104,1.18489 0.72917,2.16927 0.34635,0.96615 0.61979,1.80469 0.29166,0.82031 0.52864,1.58594 0.25521,0.74739 0.47396,1.49479 h 0.12761 q 0.29166,-0.78386 0.60156,-1.53125 0.3099,-0.76563 0.65625,-1.56771 0.34635,-0.82031 0.7474,-1.75 0.41927,-0.92969 0.92968,-2.09636 1.27605,-2.91667 2.64323,-6.05208 1.38542,-3.13542 2.82553,-6.41667 1.45833,-3.28126 2.95312,-6.65365 1.4948,-3.3724 3.00782,-6.76303 0.16406,-0.36458 0.4375,-0.60156 0.29166,-0.23698 0.61979,-0.36458 0.34635,-0.14584 0.71094,-0.20052 0.36458,-0.0547 0.67448,-0.0547 0.52864,0 1.14843,0.14583 0.63803,0.12761 1.22136,0.38281 -0.27344,2.98959 -0.49219,5.72397 -0.20052,2.73437 -0.34635,5.32291 -0.14584,2.58855 -0.25521,5.1224 -0.10938,2.51563 -0.16406,5.08594 -0.0547,2.57032 -0.0911,5.25001 -0.0182,2.67968 -0.0182,5.59635 0,1.93229 0.16406,3.29948 0.16407,1.36719 0.56511,2.24219 0.41927,0.85677 1.11198,1.25781 0.69271,0.40105 1.73177,0.40105 0.38281,0 0.72917,-0.0182 0.36458,-0.0182 0.74739,-0.0729 0.38282,-0.0729 0.83854,-0.20052 0.47396,-0.1276 1.07553,-0.32813 z"
            style="font-family:Gabriola;-inkscape-font-specification:Gabriola" id="path374" /><path
            d="m 445.35349,636.23256 q 0.10938,0.0547 0.27344,0.16406 0.18229,0.0911 0.32813,0.21875 0.14583,0.10938 0.25521,0.25521 0.10937,0.12761 0.10937,0.25521 0,0.0729 -0.0547,0.14583 -1.02083,1.42188 -2.20573,2.47917 -1.16666,1.03907 -2.44271,1.75 -1.25781,0.69271 -2.57031,1.02084 -1.3125,0.34635 -2.58854,0.34635 -2.1875,0 -4.01042,-0.89323 -1.82292,-0.89323 -3.13542,-2.44271 -1.3125,-1.54948 -2.0599,-3.6276 -0.72916,-2.09636 -0.72916,-4.48438 0,-1.95052 0.41927,-3.90104 0.4375,-1.95053 1.23958,-3.71876 0.82031,-1.76823 1.98698,-3.28125 1.16667,-1.53125 2.64323,-2.64323 1.49479,-1.13021 3.26302,-1.76823 1.78646,-0.63802 3.82813,-0.63802 1.34896,0 2.57032,0.36458 1.22135,0.36459 2.13281,1.0573 0.92969,0.67448 1.47656,1.67708 0.54688,1.00261 0.54688,2.27865 0,1.85937 -1.22136,3.24479 -1.20312,1.38542 -3.33594,2.35156 -2.13281,0.96615 -5.03125,1.56771 -2.88021,0.58334 -6.23438,0.875 v 0.3099 q 0,2.33333 0.58334,4.26563 0.60156,1.93229 1.64062,3.31771 1.03907,1.36719 2.44271,2.13281 1.40365,0.76563 3.02605,0.76563 1.64062,0 3.35416,-0.80209 1.73177,-0.82031 3.5,-2.64323 z m -3.42708,-14.63803 q 0,-0.83854 -0.29167,-1.56771 -0.27343,-0.72916 -0.78385,-1.25781 -0.49219,-0.54687 -1.1849,-0.85677 -0.69271,-0.3099 -1.49479,-0.3099 -1.1849,0 -2.15104,0.41928 -0.96615,0.41927 -1.73177,1.14843 -0.76563,0.71094 -1.34896,1.67709 -0.58334,0.94791 -1.00261,2.02344 -0.40104,1.07552 -0.65625,2.20573 -0.25521,1.13021 -0.36458,2.20573 2.58854,-0.1823 4.63021,-0.6198 2.0599,-0.45572 3.46354,-1.14843 1.42188,-0.71094 2.16927,-1.67709 0.7474,-0.98437 0.7474,-2.24219 z"
            style="font-family:Gabriola;-inkscape-font-specification:Gabriola" id="path376" /><path
            d="m 453.80141,620.92005 q 0,-0.74739 -0.10937,-1.25781 -0.10938,-0.51042 -0.34635,-0.80208 -0.21875,-0.3099 -0.56511,-0.4375 -0.34635,-0.12761 -0.82031,-0.12761 -0.65625,0 -1.56771,0.18229 -0.91146,0.1823 -2.07813,0.49219 l -0.27343,-1.3125 q 1.29427,-0.45573 2.47916,-0.82031 1.20313,-0.38281 2.20573,-0.65625 1.00261,-0.27344 1.76823,-0.41927 0.76563,-0.14584 1.20313,-0.14584 1.05729,0 1.64062,0.63803 0.60157,0.61979 0.60157,2.15104 0,0.18229 -0.0365,0.85677 -0.0365,0.65625 -0.10938,1.67708 -0.0547,1.02084 -0.14583,2.35157 -0.0911,1.3125 -0.21875,2.80729 -0.10937,1.49479 -0.25521,3.09896 -0.14583,1.58594 -0.30989,3.17188 l 0.10937,0.0182 q 1.38542,-4.70313 2.97136,-7.9297 1.58594,-3.24479 3.22656,-5.25 1.64063,-2.02344 3.26302,-2.91667 1.6224,-0.89323 3.09896,-0.89323 1.02084,0 1.96875,0.38282 0.94792,0.38281 1.67709,1.22135 0.74739,0.83854 1.18489,2.16927 0.4375,1.3125 0.4375,3.19011 0,0.54687 -0.0729,1.47656 -0.0547,0.91146 -0.14584,2.04167 -0.0911,1.13021 -0.21875,2.40625 -0.10937,1.25781 -0.20052,2.47917 -0.0911,1.22135 -0.16406,2.33333 -0.0547,1.09375 -0.0547,1.91407 0,1.42187 0.10938,2.3151 0.1276,0.89323 0.40104,1.42188 0.27344,0.51041 0.72917,0.71094 0.45573,0.18229 1.11198,0.18229 0.94791,0 1.96875,-0.25521 1.02083,-0.27344 2.05989,-0.7474 l 0.34636,0.94792 q -0.65625,0.52865 -1.65886,1.07552 -1.0026,0.54688 -2.11458,1.00261 -1.09375,0.45573 -2.1875,0.72916 -1.09375,0.29167 -1.93229,0.29167 -0.98438,0 -1.54948,-0.52865 -0.56511,-0.52864 -0.85677,-1.4401 -0.27344,-0.91146 -0.36459,-2.13281 -0.0729,-1.22136 -0.0729,-2.62501 0,-1.71354 0.10938,-3.51823 0.1276,-1.82291 0.27344,-3.46354 0.14583,-1.64063 0.25521,-2.97136 0.1276,-1.34895 0.1276,-2.15104 0,-2.13281 -0.80208,-3.13542 -0.80209,-1.02083 -2.13282,-1.02083 -1.05729,0 -2.22396,0.89323 -1.16666,0.89323 -2.33333,2.46094 -1.14844,1.54948 -2.22396,3.68229 -1.05729,2.11459 -1.91406,4.59375 -0.85677,2.46094 -1.42188,5.15886 -0.5651,2.69792 -0.71094,5.39584 l -3.80989,0.47395 -0.29167,-0.0182 q 0.14583,-1.73178 0.27344,-3.77344 0.1276,-2.04167 0.23698,-4.13803 0.10937,-2.11458 0.18229,-4.17448 0.0911,-2.07812 0.14583,-3.86458 0.0729,-1.80469 0.0911,-3.22657 0.0365,-1.42187 0.0365,-2.24219 z"
            style="font-family:Gabriola;-inkscape-font-specification:Gabriola" id="path378" /><path
            d="m 492.30924,602.47213 q -0.76563,3.46354 -1.29427,7.16406 -0.51042,3.6823 -0.875,7.27345 0.85677,0.0365 1.65885,0.0547 0.82032,0.0182 1.51302,0.0365 0.71094,0.0182 1.27605,0.0182 0.58333,0 0.96614,0 1.65886,0 2.71615,-0.20052 0.0912,0.3099 0.14583,0.5651 0.0547,0.25521 0.0547,0.47396 0,0.80209 -0.67448,1.03907 -0.65625,0.23698 -1.91406,0.23698 -1.20313,0 -2.69792,-0.14584 -1.47656,-0.14583 -3.24479,-0.27344 -0.20052,1.95053 -0.34636,3.8099 -0.1276,1.84115 -0.21875,3.48177 -0.0729,1.64063 -0.10937,3.04428 -0.0365,1.40364 -0.0365,2.44271 0,1.95052 0.20052,3.48177 0.20052,1.53125 0.71094,2.60677 0.51042,1.05729 1.40364,1.6224 0.89323,0.5651 2.26042,0.5651 0.98438,0 2.1875,-0.34635 1.22136,-0.34636 2.77084,-1.11198 0.49219,0.49219 0.5651,1.20312 -1.13021,0.7474 -2.27864,1.36719 -1.14844,0.60156 -2.26042,1.03906 -1.11198,0.4375 -2.15104,0.67448 -1.03907,0.23698 -1.96876,0.23698 -1.22135,0 -2.24218,-0.45573 -1.00261,-0.4375 -1.75001,-1.56771 -0.72916,-1.14843 -1.14843,-3.08073 -0.40104,-1.93229 -0.40104,-4.88542 0,-1.65885 0.0547,-3.40885 0.0547,-1.76823 0.14584,-3.57292 0.0911,-1.80469 0.23698,-3.60938 0.14583,-1.80468 0.32812,-3.55469 -1.4401,0.0182 -2.67969,0.12761 -1.22135,0.0911 -2.09635,0.3099 -0.0547,-0.10938 -0.0547,-0.25521 0,-0.38282 0.36458,-0.71094 0.38282,-0.34636 1.03907,-0.61979 0.67447,-0.27344 1.60416,-0.45573 0.92969,-0.18229 2.04167,-0.25521 0.41927,-3.8099 0.89323,-7.20053 0.47396,-3.39062 0.94792,-6.05208 0.0911,-0.47396 0.32812,-0.78386 0.25521,-0.30989 0.58334,-0.49218 0.32812,-0.1823 0.71093,-0.25521 0.38282,-0.0729 0.7474,-0.0729 0.60156,0 1.07552,0.12761 0.49219,0.1276 0.91146,0.36458 z"
            style="font-family:Gabriola;-inkscape-font-specification:Gabriola" id="path380" /><path
            d="m 516.74415,623.14401 q 0,-1.4401 -0.47395,-2.49739 -0.47396,-1.0573 -1.23959,-1.73177 -0.76562,-0.67448 -1.73177,-1.00261 -0.96615,-0.32812 -1.93229,-0.32812 -1.29427,0 -2.1875,0.27343 -0.89323,0.27344 -1.45834,0.7474 -0.54687,0.47396 -0.80208,1.13021 -0.23698,0.63802 -0.23698,1.38542 0,0.875 0.3099,1.76823 0.32812,0.875 0.94791,1.71354 l -0.0729,0.20052 q -1.03907,0.51042 -2.09636,0.51042 -0.61979,0 -1.16667,-0.1823 -0.52864,-0.20052 -0.92968,-0.5651 -0.38282,-0.36458 -0.6198,-0.89323 -0.21875,-0.52865 -0.21875,-1.1849 0,-1.07552 0.51042,-2.02344 0.52865,-0.94791 1.38542,-1.73177 0.85677,-0.78385 1.98698,-1.40364 1.13021,-0.6198 2.33333,-1.03907 1.20313,-0.4375 2.40625,-0.65625 1.22136,-0.23698 2.26042,-0.23698 1.91406,0 3.26302,0.51042 1.36719,0.51042 2.20573,1.49479 0.85677,0.96615 1.23959,2.35157 0.40104,1.38541 0.40104,3.13542 0,1.20312 -0.10938,2.64323 -0.0911,1.4401 -0.21875,3.02604 -0.1276,1.56771 -0.23698,3.24479 -0.0911,1.67709 -0.0911,3.33594 0,2.625 0.96615,3.95573 0.98437,1.3125 2.57031,1.3125 1.40365,0 3.13542,-1.03906 l 0.52864,0.78385 q -1.22135,1.22136 -2.66146,1.85938 -1.4401,0.63802 -3.02604,0.63802 -1.1849,0 -2.1875,-0.40104 -1.00261,-0.40104 -1.73177,-1.1849 -0.72917,-0.80208 -1.13021,-2.00521 -0.40104,-1.20312 -0.40104,-2.78906 0,-0.47396 0.0182,-0.94792 0.0364,-0.47396 0.1276,-1.0026 h -0.10937 q -0.78386,1.56771 -1.82292,3.09896 -1.02084,1.51302 -2.26042,2.71615 -1.22135,1.18489 -2.625,1.91406 -1.38542,0.74739 -2.91667,0.74739 -1.25781,0 -2.29688,-0.4375 -1.03906,-0.4375 -1.78645,-1.20312 -0.72917,-0.76563 -1.14844,-1.80469 -0.40104,-1.05729 -0.40104,-2.29688 0,-1.60416 0.58333,-2.91666 0.60156,-1.3125 1.64063,-2.35157 1.05729,-1.03906 2.51562,-1.78646 1.45834,-0.76562 3.17188,-1.25781 1.71354,-0.51042 3.6276,-0.7474 1.91407,-0.2552 3.90105,-0.2552 0.1276,-1.14844 0.20052,-2.22396 0.0911,-1.07552 0.0911,-2.3698 z m -11.19271,12.52345 q 0,0.71093 0.14583,1.36719 0.16407,0.63802 0.49219,1.1302 0.34636,0.49219 0.85677,0.78386 0.52865,0.27344 1.25782,0.27344 0.82031,0 1.69531,-0.38282 0.875,-0.38281 1.71354,-1.05729 0.85677,-0.67448 1.6224,-1.60417 0.78385,-0.94791 1.40364,-2.05989 0.6198,-1.11198 1.02084,-2.33334 0.41927,-1.23958 0.54687,-2.53385 -1.34896,0.0365 -2.67968,0.18229 -1.33073,0.1276 -2.53386,0.41927 -1.1849,0.29167 -2.20573,0.76563 -1.02083,0.47395 -1.76823,1.18489 -0.72917,0.69271 -1.14844,1.65886 -0.41927,0.94791 -0.41927,2.20573 z"
            style="font-family:Gabriola;-inkscape-font-specification:Gabriola" id="path382" /><path
            d="m 537.62438,592.9565 q -0.36458,3.09896 -0.72917,6.36198 -0.34635,3.24479 -0.67448,6.58073 -0.30989,3.31771 -0.58333,6.67188 -0.27344,3.35417 -0.47396,6.61719 -0.20052,3.2448 -0.30989,6.38021 -0.10938,3.13542 -0.10938,6.01563 0,1.80469 0.0365,3.09896 0.0547,1.29427 0.14583,2.1875 0.10938,0.89323 0.27344,1.44011 0.18229,0.54687 0.4375,0.83854 0.25521,0.29167 0.60156,0.40104 0.34636,0.0912 0.82032,0.0912 0.875,0 1.8776,-0.25521 1.02083,-0.27344 2.0599,-0.7474 l 0.34635,0.94792 q -0.65625,0.52865 -1.65885,1.07552 -0.98438,0.54688 -2.07813,1.00261 -1.09375,0.45573 -2.15104,0.72916 -1.03907,0.29167 -1.80469,0.29167 -0.98438,0 -1.56771,-0.51042 -0.5651,-0.49218 -0.875,-1.62239 -0.29167,-1.13021 -0.38281,-2.9349 -0.0729,-1.82292 -0.0729,-4.42969 0,-0.94792 0.0547,-2.69792 0.0547,-1.76823 0.14583,-4.10156 0.10938,-2.33334 0.23698,-5.10417 0.12761,-2.77084 0.27344,-5.72396 0.14583,-2.97136 0.30989,-5.97917 0.16407,-3.02605 0.32813,-5.83334 0.16406,-2.82552 0.3099,-5.32292 0.14583,-2.4974 0.27343,-4.41146 0.0182,-0.4375 0.25521,-0.74739 0.23698,-0.32813 0.60156,-0.51042 0.38282,-0.20052 0.83855,-0.29167 0.47396,-0.0911 0.94791,-0.0911 1.09375,0 2.29688,0.58333 z"
            style="font-family:Gabriola;-inkscape-font-specification:Gabriola" id="path384" /><path
            d="m 300.67374,670.9392 q 0,0.76562 -0.0365,1.96875 -0.0365,1.18489 -0.0911,2.91666 -0.0547,1.73178 -0.12761,4.04688 -0.0729,2.29688 -0.14583,5.26823 2.625,-0.0911 5.04948,-0.14583 2.42448,-0.0729 4.77605,-0.10937 2.36979,-0.0547 4.73958,-0.0729 2.36979,-0.0365 4.88542,-0.0547 0.0547,-1.85937 0.10938,-3.71875 0.0729,-1.85938 0.16406,-3.91927 0.0911,-2.0599 0.21875,-4.42969 0.14583,-2.3698 0.34635,-5.25001 0.0182,-0.40104 0.23698,-0.67448 0.23698,-0.29166 0.58334,-0.47395 0.36458,-0.20052 0.80208,-0.29167 0.4375,-0.0911 0.875,-0.0911 0.52865,0 1.13021,0.14584 0.61979,0.1276 1.20312,0.38281 -0.27343,2.98958 -0.49218,5.72396 -0.20052,2.73438 -0.34636,5.32292 -0.14583,2.58854 -0.25521,5.1224 -0.10937,2.51562 -0.16406,5.08594 -0.0547,2.57031 -0.0911,5.25 -0.0182,2.67969 -0.0182,5.59636 0,1.93229 0.16406,3.29948 0.16406,1.36719 0.5651,2.24219 0.41927,0.85677 1.11198,1.25781 0.69271,0.40104 1.73177,0.40104 0.7474,0 1.54948,-0.10937 0.80209,-0.12761 1.98698,-0.56511 l 0.51042,1.49479 q -1.3125,0.56511 -2.44271,0.98438 -1.13021,0.41927 -2.11458,0.69271 -0.96615,0.27344 -1.80469,0.40104 -0.83854,0.14583 -1.60417,0.14583 -1.03906,0 -1.82292,-0.40104 -0.78385,-0.38281 -1.3125,-1.27604 -0.51041,-0.89323 -0.76562,-2.35156 -0.25521,-1.45834 -0.25521,-3.60938 v -4.13802 q 0,-1.44011 0,-2.73438 0.0182,-1.3125 0.0365,-2.53385 0.0182,-1.22136 0.0365,-2.3698 0.0182,-1.14844 0.0547,-2.27864 -2.51562,0 -4.88542,0.0182 -2.35156,0.0182 -4.72135,0.0729 -2.35157,0.0547 -4.79427,0.14583 -2.42449,0.0911 -5.04949,0.21875 l -0.61979,20.41668 -4.32031,0.54688 -0.32813,-0.0365 q 0.21875,-5.23178 0.38281,-9.9349 0.1823,-4.72136 0.3099,-9.16928 0.1276,-4.44792 0.18229,-8.76823 0.0729,-4.32032 0.0729,-8.76823 0,-0.85678 -0.12761,-1.45834 -0.10937,-0.61979 -0.4375,-1.0026 -0.32812,-0.38282 -0.91145,-0.54688 -0.56511,-0.18229 -1.45834,-0.18229 -1.20312,0 -3.08073,0.27344 l -0.18229,-1.51302 q 2.64323,-0.67448 4.48438,-1.00261 1.84114,-0.34635 3.08073,-0.34635 1.22135,0 1.91406,0.32812 0.69271,0.3099 1.02083,0.94792 0.34636,0.61979 0.41928,1.53125 0.0729,0.91146 0.0729,2.07813 z"
            style="font-family:Gabriola;-inkscape-font-specification:Gabriola;word-spacing:0.5px"
            id="path386" /><path
            d="m 351.6321,702.31161 q 0.10937,0.0547 0.27344,0.16406 0.18229,0.0911 0.32812,0.21875 0.14583,0.10937 0.25521,0.25521 0.10937,0.1276 0.10937,0.25521 0,0.0729 -0.0547,0.14583 -1.02084,1.42188 -2.20573,2.47917 -1.16667,1.03906 -2.44271,1.75 -1.25782,0.69271 -2.57032,1.02083 -1.3125,0.34636 -2.58854,0.34636 -2.1875,0 -4.01042,-0.89323 -1.82292,-0.89323 -3.13542,-2.44271 -1.3125,-1.54948 -2.05989,-3.62761 -0.72917,-2.09635 -0.72917,-4.48438 0,-1.95052 0.41927,-3.90104 0.4375,-1.95052 1.23958,-3.71875 0.82032,-1.76823 1.98698,-3.28125 1.16667,-1.53125 2.64323,-2.64323 1.4948,-1.13021 3.26303,-1.76823 1.78646,-0.63802 3.82812,-0.63802 1.34896,0 2.57032,0.36458 1.22135,0.36458 2.13281,1.05729 0.92969,0.67448 1.47656,1.67709 0.54688,1.0026 0.54688,2.27864 0,1.85938 -1.22135,3.2448 -1.20313,1.38541 -3.33594,2.35156 -2.13282,0.96615 -5.03126,1.56771 -2.88021,0.58333 -6.23437,0.875 v 0.3099 q 0,2.33333 0.58333,4.26562 0.60156,1.93229 1.64063,3.31771 1.03906,1.36719 2.4427,2.13282 1.40365,0.76562 3.02605,0.76562 1.64062,0 3.35417,-0.80208 1.73177,-0.82032 3.5,-2.64323 z m -3.42709,-14.63803 q 0,-0.83854 -0.29166,-1.56771 -0.27344,-0.72917 -0.78386,-1.25781 -0.49219,-0.54688 -1.1849,-0.85677 -0.6927,-0.3099 -1.49479,-0.3099 -1.18489,0 -2.15104,0.41927 -0.96615,0.41927 -1.73177,1.14844 -0.76563,0.71094 -1.34896,1.67708 -0.58333,0.94792 -1.00261,2.02344 -0.40104,1.07552 -0.65625,2.20573 -0.2552,1.13021 -0.36458,2.20573 2.58854,-0.18229 4.63021,-0.61979 2.0599,-0.45573 3.46354,-1.14844 1.42188,-0.71094 2.16928,-1.67708 0.74739,-0.98438 0.74739,-2.24219 z"
            style="font-family:Gabriola;-inkscape-font-specification:Gabriola;word-spacing:0.5px"
            id="path388" /><path
            d="m 371.89252,689.22306 q 0,-1.44011 -0.47396,-2.4974 -0.47395,-1.05729 -1.23958,-1.73177 -0.76562,-0.67448 -1.73177,-1.0026 -0.96615,-0.32813 -1.93229,-0.32813 -1.29428,0 -2.1875,0.27344 -0.89323,0.27344 -1.45834,0.74739 -0.54687,0.47396 -0.80208,1.13021 -0.23698,0.63802 -0.23698,1.38542 0,0.875 0.30989,1.76823 0.32813,0.875 0.94792,1.71354 l -0.0729,0.20052 q -1.03906,0.51042 -2.09635,0.51042 -0.61979,0 -1.16667,-0.18229 -0.52864,-0.20052 -0.92969,-0.56511 -0.38281,-0.36458 -0.61979,-0.89323 -0.21875,-0.52864 -0.21875,-1.18489 0,-1.07552 0.51042,-2.02344 0.52865,-0.94792 1.38542,-1.73177 0.85677,-0.78386 1.98698,-1.40365 1.13021,-0.61979 2.33333,-1.03906 1.20313,-0.4375 2.40625,-0.65625 1.22136,-0.23698 2.26042,-0.23698 1.91406,0 3.26302,0.51042 1.36719,0.51041 2.20573,1.49479 0.85677,0.96614 1.23959,2.35156 0.40104,1.38542 0.40104,3.13542 0,1.20313 -0.10938,2.64323 -0.0911,1.44011 -0.21875,3.02604 -0.1276,1.56771 -0.23698,3.2448 -0.0911,1.67708 -0.0911,3.33594 0,2.625 0.96614,3.95573 0.98438,1.3125 2.57032,1.3125 1.40364,0 3.13542,-1.03907 l 0.52864,0.78386 q -1.22135,1.22135 -2.66146,1.85938 -1.4401,0.63802 -3.02604,0.63802 -1.1849,0 -2.1875,-0.40105 -1.00261,-0.40104 -1.73177,-1.18489 -0.72917,-0.80209 -1.13021,-2.00521 -0.40104,-1.20313 -0.40104,-2.78906 0,-0.47396 0.0182,-0.94792 0.0364,-0.47396 0.1276,-1.00261 h -0.10938 q -0.78385,1.56771 -1.82291,3.09896 -1.02084,1.51302 -2.26042,2.71615 -1.22136,1.1849 -2.625,1.91406 -1.38542,0.7474 -2.91667,0.7474 -1.25781,0 -2.29688,-0.4375 -1.03906,-0.4375 -1.78646,-1.20313 -0.72916,-0.76562 -1.14843,-1.80468 -0.40105,-1.0573 -0.40105,-2.29688 0,-1.60417 0.58334,-2.91667 0.60156,-1.3125 1.64062,-2.35156 1.0573,-1.03907 2.51563,-1.78646 1.45833,-0.76563 3.17188,-1.25781 1.71354,-0.51042 3.6276,-0.7474 1.91407,-0.25521 3.90105,-0.25521 0.1276,-1.14844 0.20052,-2.22396 0.0911,-1.07552 0.0911,-2.36979 z m -11.19271,12.52344 q 0,0.71094 0.14583,1.36719 0.16407,0.63802 0.49219,1.13021 0.34635,0.49219 0.85677,0.78385 0.52865,0.27344 1.25781,0.27344 0.82032,0 1.69532,-0.38281 0.875,-0.38281 1.71354,-1.05729 0.85677,-0.67448 1.6224,-1.60417 0.78385,-0.94792 1.40364,-2.0599 0.6198,-1.11198 1.02084,-2.33333 0.41927,-1.23959 0.54687,-2.53386 -1.34896,0.0365 -2.67969,0.18229 -1.33073,0.12761 -2.53385,0.41928 -1.1849,0.29166 -2.20573,0.76562 -1.02084,0.47396 -1.76823,1.1849 -0.72917,0.69271 -1.14844,1.65885 -0.41927,0.94792 -0.41927,2.20573 z"
            style="font-family:Gabriola;-inkscape-font-specification:Gabriola;word-spacing:0.5px"
            id="path390" /><path
            d="m 392.77274,659.03554 q -0.36458,3.09896 -0.72917,6.36199 -0.34635,3.24479 -0.67448,6.58073 -0.30989,3.31771 -0.58333,6.67188 -0.27344,3.35417 -0.47396,6.61719 -0.20052,3.24479 -0.30989,6.38021 -0.10938,3.13542 -0.10938,6.01563 0,1.80469 0.0365,3.09896 0.0547,1.29427 0.14583,2.1875 0.10938,0.89323 0.27344,1.4401 0.18229,0.54688 0.4375,0.83854 0.25521,0.29167 0.60156,0.40105 0.34636,0.0911 0.82032,0.0911 0.875,0 1.8776,-0.25521 1.02084,-0.27343 2.0599,-0.74739 l 0.34635,0.94792 q -0.65625,0.52864 -1.65885,1.07552 -0.98438,0.54687 -2.07813,1.0026 -1.09375,0.45573 -2.15104,0.72917 -1.03906,0.29166 -1.80469,0.29166 -0.98437,0 -1.56771,-0.51041 -0.5651,-0.49219 -0.875,-1.6224 -0.29167,-1.13021 -0.38281,-2.9349 -0.0729,-1.82291 -0.0729,-4.42969 0,-0.94791 0.0547,-2.69791 0.0547,-1.76823 0.14583,-4.10157 0.10938,-2.33333 0.23698,-5.10417 0.12761,-2.77083 0.27344,-5.72396 0.14583,-2.97135 0.3099,-5.97917 0.16406,-3.02604 0.32812,-5.83333 0.16406,-2.82553 0.3099,-5.32292 0.14583,-2.4974 0.27343,-4.41146 0.0182,-0.4375 0.25521,-0.7474 0.23698,-0.32812 0.60157,-0.51042 0.38281,-0.20052 0.83854,-0.29166 0.47396,-0.0911 0.94791,-0.0911 1.09376,0 2.29688,0.58333 z"
            style="font-family:Gabriola;-inkscape-font-specification:Gabriola;word-spacing:0.5px"
            id="path392" /><path
            d="m 408.22066,668.55117 q -0.76562,3.46355 -1.29427,7.16407 -0.51042,3.68229 -0.875,7.27344 0.85677,0.0365 1.65886,0.0547 0.82031,0.0182 1.51302,0.0365 0.71094,0.0182 1.27604,0.0182 0.58333,0 0.96615,0 1.65885,0 2.71614,-0.20052 0.0911,0.30989 0.14584,0.5651 0.0547,0.25521 0.0547,0.47396 0,0.80208 -0.67448,1.03906 -0.65625,0.23698 -1.91406,0.23698 -1.20312,0 -2.69792,-0.14583 -1.47656,-0.14584 -3.24479,-0.27344 -0.20052,1.95052 -0.34635,3.8099 -0.12761,1.84114 -0.21875,3.48177 -0.0729,1.64063 -0.10938,3.04427 -0.0365,1.40365 -0.0365,2.44271 0,1.95052 0.20052,3.48177 0.20052,1.53125 0.71094,2.60678 0.51042,1.05729 1.40365,1.62239 0.89323,0.56511 2.26042,0.56511 0.98437,0 2.1875,-0.34636 1.22135,-0.34635 2.77083,-1.11198 0.49219,0.49219 0.56511,1.20313 -1.13021,0.74739 -2.27865,1.36719 -1.14844,0.60156 -2.26042,1.03906 -1.11198,0.4375 -2.15104,0.67448 -1.03906,0.23698 -1.96875,0.23698 -1.22136,0 -2.24219,-0.45573 -1.00261,-0.4375 -1.75,-1.56771 -0.72917,-1.14844 -1.14844,-3.08073 -0.40104,-1.93229 -0.40104,-4.88542 0,-1.65885 0.0547,-3.40886 0.0547,-1.76823 0.14583,-3.57291 0.0911,-1.80469 0.23698,-3.60938 0.14583,-1.80469 0.32812,-3.55469 -1.4401,0.0182 -2.67969,0.1276 -1.22135,0.0911 -2.09635,0.3099 -0.0547,-0.10937 -0.0547,-0.25521 0,-0.38281 0.36459,-0.71094 0.38281,-0.34635 1.03906,-0.61979 0.67448,-0.27344 1.60417,-0.45573 0.92968,-0.18229 2.04166,-0.25521 0.41927,-3.80989 0.89323,-7.20052 0.47396,-3.39063 0.94792,-6.05209 0.0911,-0.47395 0.32813,-0.78385 0.2552,-0.3099 0.58333,-0.49219 0.32812,-0.18229 0.71094,-0.25521 0.38281,-0.0729 0.74739,-0.0729 0.60157,0 1.07552,0.1276 0.49219,0.1276 0.91146,0.36458 z"
            style="font-family:Gabriola;-inkscape-font-specification:Gabriola;word-spacing:0.5px"
            id="path394" /><path
            d="m 422.95766,698.28296 q 1.40364,-4.61198 2.97135,-7.82032 1.58594,-3.20833 3.20834,-5.19531 1.64062,-2.00521 3.26302,-2.89844 1.62239,-0.89323 3.09896,-0.89323 1.02083,0 1.96875,0.40104 0.94792,0.38281 1.67708,1.20313 0.7474,0.82031 1.1849,2.11458 0.4375,1.29427 0.4375,3.09896 0,0.54688 -0.0729,1.49479 -0.0547,0.92969 -0.14583,2.09636 -0.0912,1.14844 -0.21875,2.42448 -0.10938,1.27604 -0.20052,2.51562 -0.0912,1.23959 -0.16406,2.35157 -0.0547,1.11198 -0.0547,1.91406 0,1.42188 0.10937,2.31511 0.12761,0.89323 0.40105,1.42187 0.27343,0.51042 0.72916,0.71094 0.45573,0.18229 1.11198,0.18229 0.94792,0 1.96875,-0.25521 1.02084,-0.27343 2.0599,-0.74739 l 0.34635,0.94792 q -0.65625,0.52864 -1.65885,1.07552 -1.00261,0.54687 -2.11459,1.0026 -1.09375,0.45573 -2.1875,0.72917 -1.09375,0.29166 -1.93229,0.29166 -0.98437,0 -1.54948,-0.52864 -0.5651,-0.52865 -0.85677,-1.44011 -0.27344,-0.91145 -0.36458,-2.13281 -0.0729,-1.22135 -0.0729,-2.625 0,-1.69531 0.10938,-3.5 0.1276,-1.80469 0.2552,-3.46355 0.14584,-1.65885 0.25521,-3.02604 0.12761,-1.38542 0.12761,-2.22396 0,-2.02344 -0.78386,-3.02604 -0.78385,-1.02084 -2.11458,-1.02084 -1.03907,0 -2.22396,0.89323 -1.16667,0.89323 -2.33334,2.46094 -1.14843,1.54948 -2.22396,3.6823 -1.07552,2.11458 -1.93229,4.59375 -0.85677,2.46094 -1.42187,5.15886 -0.56511,2.69791 -0.71094,5.39583 l -3.88282,0.47396 -0.29166,-0.0182 q 0.10937,-2.15104 0.23698,-4.73959 0.14583,-2.60677 0.29166,-5.52344 0.16407,-2.91666 0.32813,-6.07031 0.18229,-3.17188 0.34635,-6.45313 0.18229,-3.28125 0.36459,-6.61719 0.18229,-3.33594 0.34635,-6.58073 0.18229,-3.26302 0.34635,-6.38021 0.16407,-3.11719 0.3099,-5.96094 0.0182,-0.4375 0.25521,-0.7474 0.23698,-0.32812 0.60156,-0.51042 0.38281,-0.20052 0.85677,-0.29166 0.47396,-0.0911 0.98438,-0.0911 1.09375,0 2.29687,0.58333 -0.41927,3.71876 -0.74739,6.83595 -0.32813,3.09896 -0.60156,5.76041 -0.25521,2.64324 -0.47396,4.94011 -0.20052,2.29688 -0.38282,4.41146 -0.16406,2.09636 -0.30989,4.10157 -0.14584,2.00521 -0.29167,4.08333 -0.14583,2.0599 -0.30989,4.30209 -0.14584,2.22396 -0.32813,4.79427 z"
            style="font-family:Gabriola;-inkscape-font-specification:Gabriola;word-spacing:0.5px"
            id="path396" /><path
            d="m 467.89778,698.04598 q -0.65625,1.85938 -1.14844,3.24479 -0.47396,1.36719 -0.83854,2.38802 -0.36458,1.02084 -0.63802,1.76823 -0.27344,0.72917 -0.51042,1.33073 -0.29167,0.69271 -0.65625,1.07553 -0.36458,0.38281 -0.78385,0.54687 -0.41927,0.18229 -0.91146,0.20052 -0.49219,0.0365 -1.03907,0.0365 -0.30989,0 -0.76562,-0.0182 -0.47396,0 -0.85677,-0.0182 l -0.25521,-0.18229 q 2.1875,-4.73959 4.13802,-9.0599 1.96875,-4.32031 3.79167,-8.27605 -0.38281,-0.60156 -0.38281,-1.0026 0,-0.72917 1.16667,-0.7474 3.33593,-7.32812 5.94271,-12.90625 2.60677,-5.59636 4.59375,-9.35157 0.18229,-0.34635 0.47396,-0.5651 0.29166,-0.23698 0.63802,-0.36459 0.34635,-0.1276 0.72917,-0.18229 0.38281,-0.0547 0.74739,-0.0547 0.52865,0 1.03906,0.0911 0.51042,0.0911 1.09376,0.34635 1.14843,6.32553 2.09635,11.39324 0.96615,5.04948 1.78646,9.00521 0.82031,3.95573 1.54948,6.90886 0.72917,2.9349 1.40365,5.04948 0.67448,2.09636 1.34896,3.46354 0.67447,1.36719 1.38541,2.15105 0.72917,0.78385 1.53125,1.09375 0.80209,0.30989 1.75,0.30989 0.6198,0 1.25782,-0.14583 0.63802,-0.14583 1.40364,-0.41927 l 0.51042,1.49479 q -2.09635,1.03906 -4.01042,1.58594 -1.91406,0.54687 -3.39062,0.54687 -0.83855,0 -1.58594,-0.30989 -0.72917,-0.3099 -1.42188,-1.05729 -0.67448,-0.76563 -1.33073,-2.04167 -0.63802,-1.27604 -1.29427,-3.20834 -0.65625,-1.93229 -1.34896,-4.59375 -0.69271,-2.67969 -1.45833,-6.21615 -3.3724,0.0365 -6.67188,0.16406 -3.28125,0.10938 -6.79948,0.3099 -0.71094,1.87761 -1.29427,3.44532 -0.56511,1.5677 -0.98438,2.77083 z m 15.27605,-8.9323 q -0.38281,-1.80468 -0.82031,-3.99219 -0.4375,-2.20573 -0.89323,-4.64844 -0.45573,-2.46093 -0.92969,-5.12239 -0.47396,-2.66146 -0.92969,-5.39584 h -0.10937 q -2.62501,5.43229 -4.6849,10.33594 -2.0599,4.90365 -3.66407,9.02344 3.13542,-0.0729 6.07032,-0.10937 2.9349,-0.0547 5.96094,-0.0911 z"
            style="font-family:Gabriola;-inkscape-font-specification:Gabriola;word-spacing:0.5px"
            id="path398" /><path
            d="m 497.49155,683.64493 q 2.04166,-0.61979 3.48177,-1.0026 1.4401,-0.38282 2.40625,-0.60157 0.98438,-0.21875 1.53125,-0.29166 0.56511,-0.0911 0.83854,-0.0911 0.45573,0 0.85677,0.14583 0.40105,0.12761 0.69271,0.45573 0.3099,0.32813 0.47396,0.89323 0.16406,0.54688 0.16406,1.36719 0,0.27344 -0.0365,1.07552 -0.0182,0.80209 -0.0912,2.22396 -0.0729,1.40365 -0.20052,3.46355 -0.10938,2.04166 -0.29167,4.8125 l 0.21875,0.0182 q 1.42188,-3.53646 3.0625,-6.25261 1.65886,-2.73438 3.35417,-4.59375 1.71354,-1.85938 3.40886,-2.8073 1.69531,-0.96614 3.22656,-0.96614 1.23959,0 2.1875,0.47396 0.94792,0.45573 1.64063,1.23958 0.71094,0.76563 1.18489,1.78646 0.47396,1.0026 0.76563,2.11458 0.29167,1.09376 0.41927,2.22396 0.12761,1.13021 0.12761,2.11459 0,2.67969 -0.54688,5.01302 -0.54688,2.33334 -1.49479,4.28386 -0.94792,1.93229 -2.24219,3.46354 -1.29427,1.53125 -2.80729,2.58854 -1.4948,1.03907 -3.15365,1.58594 -1.64063,0.56511 -3.29948,0.56511 -1.76823,0 -3.44532,-0.63802 -1.67708,-0.63803 -3.15364,-2.11459 -0.20052,4.57552 -0.40105,9.44271 -0.20052,4.88542 -0.21875,10.19011 l -3.82812,0.4375 -0.38281,-0.0182 q 0.27343,-3.40885 0.51041,-7.16406 0.23698,-3.73698 0.4375,-7.51042 0.20052,-3.77344 0.36459,-7.41928 0.16406,-3.66406 0.27343,-6.8724 0.10938,-3.20833 0.16407,-5.8151 0.0729,-2.625 0.0729,-4.33855 0,-0.6927 -0.0729,-1.20312 -0.0729,-0.52865 -0.29167,-0.875 -0.20052,-0.34636 -0.60156,-0.51042 -0.40105,-0.18229 -1.0573,-0.18229 -0.67448,0 -1.64062,0.14583 -0.96615,0.14584 -2.33334,0.49219 z m 9.44271,20.56251 q 1.54948,1.3125 3.08073,1.93229 1.54948,0.6198 3.09896,0.6198 2.04167,0 3.75521,-0.85678 1.73177,-0.875 2.97136,-2.58854 1.25781,-1.71354 1.95052,-4.22917 0.71093,-2.53385 0.71093,-5.86979 0,-1.23959 -0.20052,-2.55209 -0.18229,-1.3125 -0.60156,-2.36979 -0.40104,-1.07552 -1.07552,-1.75 -0.65625,-0.69271 -1.60417,-0.69271 -1.11198,0 -2.20573,0.58334 -1.09375,0.5651 -2.13281,1.54947 -1.02084,0.96615 -1.96875,2.27865 -0.94792,1.3125 -1.78646,2.78907 -0.83854,1.45833 -1.53125,3.02604 -0.69271,1.54948 -1.22136,3.02604 -0.51041,1.47657 -0.83854,2.78907 -0.30989,1.3125 -0.40104,2.3151 z"
            style="font-family:Gabriola;-inkscape-font-specification:Gabriola;word-spacing:0.5px"
            id="path400" /><path
            d="m 528.85353,683.64493 q 2.04167,-0.61979 3.48177,-1.0026 1.44011,-0.38282 2.40625,-0.60157 0.98438,-0.21875 1.53125,-0.29166 0.56511,-0.0911 0.83855,-0.0911 0.45573,0 0.85677,0.14583 0.40104,0.12761 0.69271,0.45573 0.30989,0.32813 0.47396,0.89323 0.16406,0.54688 0.16406,1.36719 0,0.27344 -0.0365,1.07552 -0.0182,0.80209 -0.0911,2.22396 -0.0729,1.40365 -0.20052,3.46355 -0.10937,2.04166 -0.29166,4.8125 l 0.21875,0.0182 q 1.42187,-3.53646 3.0625,-6.25261 1.65885,-2.73438 3.35417,-4.59375 1.71354,-1.85938 3.40885,-2.8073 1.69532,-0.96614 3.22657,-0.96614 1.23958,0 2.1875,0.47396 0.94791,0.45573 1.64062,1.23958 0.71094,0.76563 1.1849,1.78646 0.47396,1.0026 0.76562,2.11458 0.29167,1.09376 0.41928,2.22396 0.1276,1.13021 0.1276,2.11459 0,2.67969 -0.54688,5.01302 -0.54687,2.33334 -1.49479,4.28386 -0.94792,1.93229 -2.24219,3.46354 -1.29427,1.53125 -2.80729,2.58854 -1.49479,1.03907 -3.15365,1.58594 -1.64062,0.56511 -3.29948,0.56511 -1.76823,0 -3.44531,-0.63802 -1.67709,-0.63803 -3.15365,-2.11459 -0.20052,4.57552 -0.40104,9.44271 -0.20052,4.88542 -0.21875,10.19011 l -3.82813,0.4375 -0.38281,-0.0182 q 0.27344,-3.40885 0.51042,-7.16406 0.23698,-3.73698 0.4375,-7.51042 0.20052,-3.77344 0.36458,-7.41928 0.16406,-3.66406 0.27344,-6.8724 0.10937,-3.20833 0.16406,-5.8151 0.0729,-2.625 0.0729,-4.33855 0,-0.6927 -0.0729,-1.20312 -0.0729,-0.52865 -0.29167,-0.875 -0.20052,-0.34636 -0.60156,-0.51042 -0.40104,-0.18229 -1.05729,-0.18229 -0.67448,0 -1.64063,0.14583 -0.96614,0.14584 -2.33333,0.49219 z m 9.44271,20.56251 q 1.54948,1.3125 3.08073,1.93229 1.54948,0.6198 3.09896,0.6198 2.04167,0 3.75521,-0.85678 1.73178,-0.875 2.97136,-2.58854 1.25781,-1.71354 1.95052,-4.22917 0.71094,-2.53385 0.71094,-5.86979 0,-1.23959 -0.20052,-2.55209 -0.18229,-1.3125 -0.60156,-2.36979 -0.40105,-1.07552 -1.07553,-1.75 -0.65625,-0.69271 -1.60416,-0.69271 -1.11198,0 -2.20573,0.58334 -1.09375,0.5651 -2.13282,1.54947 -1.02083,0.96615 -1.96875,2.27865 -0.94792,1.3125 -1.78646,2.78907 -0.83854,1.45833 -1.53125,3.02604 -0.69271,1.54948 -1.22135,3.02604 -0.51042,1.47657 -0.83854,2.78907 -0.3099,1.3125 -0.40105,2.3151 z"
            style="font-family:Gabriola;-inkscape-font-specification:Gabriola;word-spacing:0.5px"
            id="path402" /></g></g>
        <path id="path6004"
            style="fill:none;fill-rule:nonzero;stroke:#2a3848;stroke-width:7;stroke-linecap:round;stroke-linejoin:round;stroke-miterlimit:10;stroke-dasharray:none;stroke-dashoffset:0"
            d="m 385.61848,588.69739 c -2.68764,-7.3678 -5.14891,-10.80602 -10.12158,-17.5093 -22.43222,-30.24374 -43.52884,-58.7611 -52.07407,-96.53747 -8.01513,-35.44267 -4.84543,-73.63452 10.00561,-106.80012 25.273,-56.43338 80.2699,-91.6342 139.87591,-97.56594 28.15854,-2.79919 55.59782,-1.50964 82.64668,7.68362 34.6257,11.76916 65.35232,42.50375 80.02669,76.29525 6.68333,15.38289 10.49229,32.04606 11.27257,48.84744 0.37319,7.98866 0.86049,17.38331 -1.283,25.14867 -2.23602,8.07988 -4.81744,14.26333 -1.2059,22.73006 0.5829,1.36814 1.27067,2.68596 2.02937,3.95661 7.17063,12.02076 14.86257,23.71451 22.31385,35.56229 3.13658,4.99452 6.54149,9.85382 9.23396,15.09048 4.62623,8.98881 3.03477,13.22537 -5.93392,18.11924 -6.14051,3.35274 -14.9458,5.42228 -17.50565,10.64321 -1.57292,3.21121 0.83889,7.61443 2.03554,10.54572 1.70863,4.18935 3.44192,8.602 3.06564,13.24427 -7.84742,8.40031 -1.70096,11.95223 -2.52282,16.27618 -0.74946,3.34645 -3.30314,6.13305 -5.75195,8.33153 -8.74046,7.84714 -2.7449,24.25548 -3.58071,33.94882 -0.58907,6.80925 -3.26306,13.72233 -8.56469,17.90224 -5.41157,4.26708 -6.86077,5.74167 -14.03079,5.47349 m 0,0 c -7.26283,-0.27165 -14.71797,-1.89472 -20.92733,-2.8934 -19.5325,-3.13887 -34.2755,-2.12501 -36.52723,23.17141 -0.76372,8.58938 -0.80595,17.22655 -0.14173,25.80391 m -28.28171,82.66595 c 3.88412,-0.81097 0.82312,-5.63581 -1.34788,-6.45566 -5.88328,-2.22172 -11.01565,3.81732 -11.56343,9.15143 -0.97985,9.54147 8.04578,16.64207 16.95496,16.67121 13.07459,0.0428 22.37698,-12.31056 21.77899,-24.75851 -0.79704,-16.59117 -16.58546,-28.15462 -32.56206,-26.88676 -20.10491,1.59547 -33.95365,20.86451 -31.99453,40.3656 2.37276,23.61842 25.14577,39.76494 48.16914,37.1023 27.13224,-3.13782 45.58391,-29.42838 42.21008,-55.97268 -1.52763,-12.019 -5.90025,-17.16102 -14.1835,-31.41336 -8.28324,-14.25233 -8.21718,-28.03526 -9.18006,-40.46952"
            sodipodi:nodetypes="ccccccccccccccccccsccccccccsssssssszc"
            transform="translate(68.310111,29.669602)" /></g></svg>
